<svg width="72" height="75" viewBox="0 0 72 75" fill="none" xmlns="http://www.w3.org/2000/svg">
<path d="M29.7501 52.875V60.5833M35.9168 48.25V60.5833M35.9168 48.25L23.5834 57.5V68.2917L35.9168 72.9167L48.2501 68.2917V57.5L35.9168 48.25ZM42.0834 52.875V60.5833M56.2298 45.1667H48.2501L35.9168 39L24.4005 45.1667H15.6038M29.7501 32.8333V5.46875M42.0834 32.8333V5.46875" stroke="#0071C2" stroke-width="4" stroke-miterlimit="10" stroke-linecap="round" stroke-linejoin="round"/>
<path d="M60.5833 57.5L51.3333 31.2916L42.0833 32.8333L35.9167 39L29.75 32.8333L20.5 31.2916L11.25 57.5" stroke="#0071C2" stroke-width="4" stroke-miterlimit="10" stroke-linecap="round" stroke-linejoin="round"/>
<path d="M48.25 65.2083L60.5833 57.5H69.8333L60.5833 31.2917V15.875L35.9167 2L11.25 15.875V31.2917L2 57.5H11.25L23.5833 65.2083" stroke="#0071C2" stroke-width="4" stroke-miterlimit="10" stroke-linecap="round" stroke-linejoin="round"/>
</svg>
